<svg id="Layer_1" data-name="Layer 1" xmlns="http://www.w3.org/2000/svg" xmlns:xlink="http://www.w3.org/1999/xlink" viewBox="0 0 730.05 437.16"><defs><style>.cls-1{fill:url(#Orange_Yellow_2);}</style><linearGradient id="Orange_Yellow_2" x1="55.16" y1="296.62" x2="785.21" y2="296.62" gradientUnits="userSpaceOnUse"><stop offset="0" stop-color="#fcef44"/><stop offset="0.04" stop-color="#fce335"/><stop offset="0.12" stop-color="#fdd322"/><stop offset="0.2" stop-color="#fdca17"/><stop offset="0.28" stop-color="#fdc713"/><stop offset="0.67" stop-color="#f29140"/><stop offset="0.89" stop-color="#ed683c"/><stop offset="1" stop-color="#e93f3a"/></linearGradient></defs><path class="cls-1" d="M778.91,272.56c-9.91-18.85-18.64-35.24-6.94-52.5,2.66-3.52,4.53-8.29,6.88-14.09,7.59-18.76,4.27-57.09-12-79.54-10.62-14.65-33.09-35-55.55-26.37-2.84,1.09-19.62-1.93-33.11,12-7.85,8.1-11.63,15.82-14.7,25.86a95.88,95.88,0,0,0-4.72-9.47C656.06,123.67,640.9,97,604,93.54c-7-.66-17.42,4.53-23.71,4.63-8.4.13-13.24,2.44-19.09,7.75a75,75,0,0,0-15.55,20.52c-1.25-1.64-3.24-2.65-6.25-2.75.08-9.34-2.35-17.14-12.21-18.11a9.79,9.79,0,0,1-6.94-3.31c1.42.68-8.24-14.6-15.69-11.74-17.69,6.81-17.16-5.29-33.75,9a29.64,29.64,0,0,0-2.92,1.06c-1.37-.08-2.8-.64-4.11-.54h-.05c-7.52.75-19.09,12.49-24.17,23.81a19.85,19.85,0,0,0-3.3-3.88c-11-7.16.36-8-10.67-14.56S424,97,413.73,93.16c-8.36-1.81-8.24-2.64-10.51-5.67-11-14.66-17,.22-24.8-7.22-8.8-6.49-11.61,3.7-24.7-1s-12.79,8.06-23.26,4.4S317.68,93.9,309.59,93.9s-5,13.78-12.16,13.78-2.86,16.13-10.44,16.13c-10.68,3,2.6,17.29-6.38,21.48-.14-3.42-1.41-5.95-4.17-6.79a14.46,14.46,0,0,0-1.44-2.45c0-.25,0-.49,0-.72,1.13.89,2.73,1.08,5.35-.24a5.47,5.47,0,0,1-3.52-.92c-1.93-1.71-1.45-5-3-7-1.28-1.7-3.51-1.53-5.72-1.62-.65-4.35-4.92-6.63-9.73-8.25a17.87,17.87,0,0,1-.7-1.94,4.54,4.54,0,0,0-5.31.19l-1.2-.33c-1.15-1.83-1-4.73-3.26-5.81-2.63-1.24-4.23.75-6.33,1.35l-.72-.45c-.66-2.51-2.24-3.94-4-3.92a19.67,19.67,0,0,0-4.8-1.54c1.59-1.73,0-5-2.51-7.45.15-.21.29-.42.43-.64a5.1,5.1,0,0,1-.5.57,11.85,11.85,0,0,0-3.65-2.5c-4-1.61-7.51-1.18-9.27,2.52l-.66-.34c-2-1.28-4.2-1.46-5.1-.37A12.87,12.87,0,0,0,206,99.94l-.65.17c-1.49.08-2.59-1.16-4.33-.61a6,6,0,0,0-1.86,1.12l-.89,0-.49.11a25.24,25.24,0,0,0-3.16.36c-2.12-.9-4-1.43-5.86.7a23.81,23.81,0,0,0-4.93,1.27c-6.43,2.34-13.61,7.64-15.11,15a15.4,15.4,0,0,0-.24,2c-3.25.19-6.35,1.52-8,3.54a7.54,7.54,0,0,0-1.38,1.07,18.12,18.12,0,0,0-2.87,3.75,14.19,14.19,0,0,0-2.18,1.18c-.37-.51-.78-1.13-1.36-1.82-2.88-3.29-5.14-1.7-7.2.93-1.15,1.59-4.2,7.73-7.14,3.41,1.87,4.18,4.47,2.2,6.48.43,2.91-2.55,4.57-5.5,7.42-2.06.12.14.24.29.37.43a5.12,5.12,0,0,0-1,2.34,12.88,12.88,0,0,0-2.54-.45c-5.44-.27-7.42,4.11-8.07,9-.76,5.61-4.26,3.27-8.77,2.14-3.12-.79-7-1.46-6.28,4.4.3-6.67,7.17-1.56,9.32-.46,1,.48,2,1,3,1.39a20.23,20.23,0,0,0,.16,2.86,4.53,4.53,0,0,1-1.29-.17c-2-.48-5.3-1.82-7.08-1.2-2.09.75-1.94,4.26-3.41,6.26-2.45,3.08-7,1.52-9.87-2.92,2.6,4.17,6.38,7.08,9.33,5.49,2.62-1.82,3.31-6.65,6.14-7.36,2.17-.56,4.28.91,6.33,1.08l0,.27c-1.42.67-3,1.41-4.66,2.24a26.46,26.46,0,0,0-8.49,4.65,3.26,3.26,0,0,0-1.27.18c-1.33.45-2,1.72-2.59,3.28-2.4,2.41-3.85,5.08-3.44,7.94-3.85,3.37-10.15.41-14.32-6.51,3.5,6,8.27,10.52,12.38,10.28-4,2.56-7.91,5.63-8.58,8.46-5.89,3.56-10.72,8-8.33,14.75-1.78,2.34-2.78,4.81-2.31,7a4.92,4.92,0,0,1-2,1c-1.25.31-4-2-6.83.74s.57,10.69-2.95,9.8c-10.92.56-9.45,10.44-12.05,9.6s-2.75-3.81-4.44-2.65-1,2.35-1.6,4l.78,1.05c.57-1.62.36-3.63,1.6-4,.64-.18,1.13.73,1.81,1.55-1.42,8.62-7.86,10.41-16,8.29l-.27.33c8.2,2.15,16.71,1.84,18-7,6,2.47,12.38,1,12.46-3.15.06-3.48,3.55-5.85,6.87-7.84a5.57,5.57,0,0,0,0,.92c-1.45,2.45-2.09,5-1.26,7.14a33.85,33.85,0,0,1-3.52,1,12.14,12.14,0,0,0-1.88,4.76,11.34,11.34,0,0,0-3.81,0c1.24,9-10.8,6.08-12.89,7.7,2.77,5.42-3.14,8.23-5.09,8.72l2.18-.08c-.11.5,8.31-.31,4.76-6.56,10,1.23,14.13,1.28,12.88-7.71a8.81,8.81,0,0,1,1.91-.13,9.44,9.44,0,0,0,.79,3A15.13,15.13,0,0,0,84,241.67c-3.72,1.1-8.05,1.4-10.11,5.19-1.7,3.13-1.11,7.76-.11,12.21-2.87,4.76-7.11,8.2-11.88,7.42l3,1.28a11.88,11.88,0,0,0,10.23-3.3,34.44,34.44,0,0,1,1,5.07c-10.54,1.39-14,10.4-4.7,16.94-8.17-2.06-7.21,5.28-5.93,7.42l2.64,2c-2.49-3.74-5.67-9.53,5.17-7.67,6.45-2-19.1-10.95,3.21-15.86a6.51,6.51,0,0,0,3.37-2.12c-.16,2.45.37,4.54,2.08,6a14.87,14.87,0,0,1,1.79,1.74c-1.28,2.15-2,3.92-1.72,4.79s2,1.15,4.07,1.21c.13,3.38-1.35,7-3.2,10.43a8.47,8.47,0,0,0-2.44,4.37c-4.67,8.18-8.28,15.21,7.24,17.33-12.1-4.51-8.91-10.88-3.47-13.87,2.84.09,6.25-1,7.64-.47-4.53,3.13-4.67,7.44-3.25,11.46-.81,3-.6,5.4,2.62,5.09a38.79,38.79,0,0,0,4.87,6s-3.78-6.48,3.08-4.15a10.69,10.69,0,0,0,.13,1.69,1,1,0,0,0-1.34.7c-.78,1.89.43,2.53.83,4.21l1.23.46c-.41-1.68-1.67-3.24-.83-4.21a.54.54,0,0,1,.3-.19,15.86,15.86,0,0,0,4.46,7.43l2.81,1.67a15.18,15.18,0,0,1-4.66-8.46,2.19,2.19,0,0,0,2.26-.65,3.15,3.15,0,0,0,.19-.27c7.35,3.68,11,7.2,6.93,10.84,16.54-1.69,10.66,6,10.66,6s7.77.62,6.11-5.91c3.18,3,4.61-2.05,4.75-.52,6.33-.07,4.55-1.12,5,5,.1,1.24,3.17,1.47,5.6,1.91a2.33,2.33,0,0,0,1.92.74,9.83,9.83,0,0,1-2.07,3.65h0a11.66,11.66,0,0,1-2.48,2.22l2.56-.85c0,.24,1.5-.21,2.87-1.21,4.74-.36,7.64-3.79,10.47-5.57a16.65,16.65,0,0,0,4,6.05l2.16,1.28-.48.39a4,4,0,0,0,1-.1l.16.1-.1-.1c5-1.06,11.22-10.24,9.7-15.05,1,.71,2,1.45,3.22,2.26-6.8,2.35-1,8.52-.76,8.08l1.58,1.49c-1.14-1.65-3.72-7.66,1.94-9.91-.5-2.59-11.45-8.37-4.57-14.29a9.13,9.13,0,0,0-1.49-1.49c1.21-3,1-6.18,1.49-9.22.13-.9.37-2,.43-3.19,2.21-3.06,4.7-6,7-8.79,8.71-10.35-3.83-15,4.66-23.78s-7.51-16.93,4.25-23.92a10.82,10.82,0,0,0,3.18-3.09c.86-2.25,3.57-9.76,3.82-12.59l-1-5.7-.06-.19a12.38,12.38,0,0,1-3.86,1.05c-2.49.23-5.25-.86-8.45-3.16-.06-.18-.11-.35-.17-.52l-.16.23c-2.71-2-6.35-6-10.93-11.85S166,202.46,165,199.64a38,38,0,0,1-2.26-10,39.49,39.49,0,0,1-.5-6.5,4.66,4.66,0,0,0-.26-1.87h-.14c-.27-1.2-.76-3.43-1.37-5.33-.49-1.73-1.05-3.39-1.49-5.06-.77-2.53-.65-1.94-1.26-4.47h0c-.32-1.22-.8-3.22-.84-3.18-.05-.11-.05-.23-.11-.28a20.77,20.77,0,0,1,.22-11.92c1.27-3.56,2.28-11,7.36-16.27a42.83,42.83,0,0,1,13.59-9.26c3.09-1.44,7.08-1.73,10.72-3s8.75-.58,14.76-.46a6.49,6.49,0,0,1,3.6,1.09,26.23,26.23,0,0,0-.52,7.31,94.75,94.75,0,0,0,4.87,10.87c1,1.9,3.09,5.35,6.24,10.47q3.57,5.79,6.46,16.92h.06a6.38,6.38,0,0,0,.22.92l3.78,6.06a29.1,29.1,0,0,1,.55,7.95c2-1.87,4.38-3,6.24-2.8-.6,8.72-2.13,17.89-2.55,24.68l-.15.27c-.84,10.94-2.07,18.84-2.33,24.4,0,2.29,1.6,7.64,1.71,8.29a45.4,45.4,0,0,1,2.86,7.14h-.64c.06.11.12.23.19.34-2.12,3.95-6.67,7.18-6.48,9.74.1,1.49,1.5,2.58,3.09,3.73-.1,1.69,1.58,2.95,3.08,4.35-4.46,3.58-8.44,7.49-4.81,12.07-.27.7-.52,1.41-.74,2.14.34,2.47,1.33,5.52,1.82,8.25-3.5,3.29-9.31,6.12-6.86,12.08l-.36.52c-1.21,3.1-3.12,7.7-2.61,10.46-4.15,2.76-9.17,5.16-6.12,11.44l.06.13c-.25.09-.5.17-.76.24,4.4,7.63.91,14.57-6.9,17.89l3.22-.53a18.18,18.18,0,0,0,4.38-2.6,13.84,13.84,0,0,0,.43,5.08c1,3.91,6.52,5,13.53,4.48.24.12.49.24.77.36l-.55-.37a72.34,72.34,0,0,0,10-1.58,18.22,18.22,0,0,1-3.15,3l3-1.3a19,19,0,0,0,2.5-2.28,84.17,84.17,0,0,0,16-5.65c.13,2.67-2.64,4.65-6.06,5.58,4.28-1.1,7.72-3.41,7.5-6.33.43-.24.84-.48,1.22-.71a48.45,48.45,0,0,0,10.07-.55c.21,1.85,1.48,3.28,2.46,5.26a7.52,7.52,0,0,1-.65-5.67,37.9,37.9,0,0,0,9.73-4.27c1.54-.89,4.68-2.88,8.56-5.52-1.53,2.18-2.53,4.4,1.39,7.17a5.33,5.33,0,0,1-.81-3.48c.62-2.45,3.75-3.51,4.82-5.74a3.35,3.35,0,0,0,.29-1.95c.95-.69,1.92-1.4,2.9-2.13,1.72,1.24,4-1,4.8-.13s-.42,2.48-.83,4.12l1.23-.45c.41-1.64,1.61-2.27.83-4.12s-2.47.41-5-.17c2.69-2,5.42-4.18,8-6.37,1.27,4.66-.83,9.45-5.43,13.11L304.4,324c4.92-3.9,7-9.1,5.13-14.05a75.32,75.32,0,0,0,7.09-7.14c2.16,4.88,4.18,10.2-3.14,8l1.84,1.16c7.78,2.35,4.65-5.08,2.34-10.44a19.25,19.25,0,0,0,3-5.16c2.56.35,5.5.66,7-1,1.05-2.36-.43-4.82-2.79-7.1a25.69,25.69,0,0,0,2.13-1.71c1.33,1.43,3.27,1.76,5.34,2.75a7.7,7.7,0,0,1-4.06-4.07,9.66,9.66,0,0,0,1.88-3.2c2-5.84.08-21.08-5.17-24.07,3.36-.28,4.67-1.55,4.73-3.59a7.4,7.4,0,0,1,.87,4.86l0-.11c.4.25,1.95-5.56-1.34-7.42a26.05,26.05,0,0,0-1-2.73c5.05-5.2,1.51-11.64-6.16-14.11A7.14,7.14,0,0,0,324,227c1.49-2.29,2.5-4.72,1.13-7.74-1.9-4.18-7.43-3.87-11.61-5-1.07-.88-2.18-1.76-3.34-2.64,3.47-4.33,5.71-10.92,2.58-13.48a28,28,0,0,0-5.18-3,.5.5,0,0,1,0-.13s-.54-1-1.34-2.9a8.34,8.34,0,0,0,3,0,5.48,5.48,0,0,1-3.07-2c-1.31-2.21.15-5.17-.68-7.55-.53-1.52-1.9-2.18-3.44-2.75-.2-.77-.39-1.57-.57-2.38-.07-.13-.08-3.09-.15-3.16a23,23,0,0,1,.28-14c.1-.26.19-.54.29-.82A57,57,0,0,1,311,131.66c.1.23.2.47.33.73,1.74,2.08-4.61,3-1.43,7.74-4.58,5.44-2.21,12.61-2.21,12.61s5.65-19.41,9.05-19.45c1.7,0,.91-.06,1.69,1.89s7,.42,9.16,2.3,5.86.73,6.66-.82c1.27-2.46,5.19-.65,6.16-1.21,1.88-1.06,3.91-2.92,8-1.22,3.19,1.34,4.87-1.92,7.87-1.59,2.26,2.84-7.3,5.4,4.74,10.15,16.66,4.59-3.33,9.34,7,10.77,10.24-.18,2.53,10.92-1.6,7.85-1.56-1.86-.33-2.36.71-3.52-3.59-.66-4.38,9.29,6,4.22,7.62-3.74,6.11-11.39,0-11.13s3.58-6.27-.91-7.06c-6.46-1.13-6.5-5.54-4.78-6.09.34-.42,6.51,2.44,10.25,3.69a8.66,8.66,0,0,0,1.43,1.51c5.07,4.39-8.54,4.19,3.36,12.08,15.23,7.88-5.36,8.45,4.45,12,10,1.92,0,11.18-3.33,7.34-1.11-2.14.2-2.37,1.49-3.29-3.37-1.37-6.38,8.18,4.87,5.33a10.07,10.07,0,0,0,5.11-2.82,39.67,39.67,0,0,0,.56,4.58c.95-.93,1.07-2.37,2.25-4.39s.13-3.37,2.25-4.28a21.21,21.21,0,0,0,4.7-3.74c1.26,5.47-1.57,16-3.15,17.77-2.61,2.85-3.59,7.18-6.1,9.36-.77,9.83-2.84,20.24-3.3,27.85l-.12.22c-.14,2-.3,3.95-.46,5.81,2.92-.59,5.07-1.75,5.47-3.79.91-4.63,9.7-2.18,16.31-3.17.77,2.58,2.66,5.68,6.12,9.67,13.66,15.74,3.6,20.89-.11,26.9-6.71,10.88,4.13,20.84,7.46,21.86,0,0-2.82-3.6-2.69-7.06a11.37,11.37,0,0,1,1.38-5.22c3.1,20.86,23.37,12.65,23.37,12.65s-14.34-4.11-12.6-19.86c.19-1.73,19.38,13.26,17.85,29.61,12-12.28,2.81-23.85-2.5-32,4.87,6.39,15.14,14.15,25.52,9-10-4.58-15.69-6.53-13.21-17.07,1.66-7.06,6.64-9.32,10.14-14.87,7.35-11.64-.31-21.32-6.52-30.55-5.63-8.36-8.76-20.94-9.41-32.37l.33-.46c2.67-3.78,20.1-25.81,21.71-31.65l-3.17,19.49,12.54-28.48s8,32.45,20.87,36.31c-2.21-.66-11.68-26.52-13.1-29.85,1.42,3.33,19.95,24.39,21.52,34.84,2.64-7.27,2.8-18,2.8-18a143.2,143.2,0,0,1,1,30.73A54.94,54.94,0,0,1,516.17,202c-5.5,9.38-13.71,23.35-4,33.14,6.71,6.77,4.94,12.18,1,18.65-7.49,12.23-1,30.32,21.85,21.47-20.48-1.92-9.67-13.18-8.42-17.85C529.22,267,535.75,269,538,276.12c2.7,8.45-5.54,9.48-11,13,10.82,2.11,24.87-5.2,20.7-16.2-2.72-7.18-5.62-8.2.08-16.82,6.7,4.54,9.06,10.57,7.39,16,.11-.36,4.07-2.32,4.69-3.19h0c4.78-6.76,2.64-13.26-1-18.73s4.11-12.62,7.53-17.67c2.33-3.44,1.42-7.3-.72-11.5a46.08,46.08,0,0,0,9.6,1.15c-7.33-8.3-16.46-25.1-13.91-35.88,1.37-5.83,6.24-10.84,9.77-15.51,5.62-7.43,8-14.06,12.77-22.09,24.37,24.19,47,19.95,49.62,21.59-3.56-2.22-14.72-8.31-18-10.54-4.23-2.91-6.51-6-11.82-10.94,6.42,6,8.19,5.36,16.91,9.27,8.18,3.68,13.35,10.65,18.63,17.73,10.8,14.47,2.23,33.83-8.85,46.37a41,41,0,0,0,25.15-9.53c1.6,14.34,19,17.58,28.08,17.48-5.91-1.22-27.16-7.46-21.24-19.43.22-.45.45-.87.68-1.28,7.06,22,26.35,21.52,26.35,21.52s-6.84-6.77-15.24-30.5c-.28-9,2.37-12,5.17-16,3.11-4.4,23.39-30,25.26-36.84l-3.68,22.68,14.58-33.14s9.29,37.76,24.3,42.26c-2.57-.77-13.6-30.86-15.25-34.73,1.65,3.87,21.85,46.73,26.71,51.08,3.07-8.46,1.59-31.52,1.59-31.52,2.2,13.84,2.41,36.42-.52,46.17-6.91,23.06-22.85,33.14-32.49,54.46-9,19.85-10.68,39-11.9,66.08-1,22.29,7.17,48.52,15.18,71.42C721,396,718.8,376.69,719.9,355.6L722,332.4c13.08,75.92-4.46,92.15-6.43,117.16-1,12.08,4.38,33.07,20.55,23.83-2.39.52-6.12.83-8.21-1-3.33-2.9-4.1-10.46-3.68-15.11C726,438.44,734.72,436.9,742,392.67c5.46-33.11,0-83.57,5.79-107.82-1.53,11.87,2.14,55.62,6.92,98.64,3.6,32.31.31,53.58-6.85,70.71-5.63,13.48-8.52,33.44-5.71,48.11,0,0,2.33,19.86,20,10.26-13.12,3.49-16.91-15.1-16.39-25.47.84-16.31,10.55-29.55,17.93-42.15,9.25-15.8,9.76-35.06,9.46-53.79-.34-22,1.84-63.74,0-85.76-2-23.71-3.86-32.42-9.25-58.77,7.9,37.7,17.59,44.56,13.41,98.39,2.08-5.6,4.27-10.3,5.29-16.28C785.61,310.71,787.75,289.38,778.91,272.56ZM84.4,223.85c.87,2.63-4.36,4.52-9.61,3.74,1.83-2,2.65-8.72,11.28-9.07a4.2,4.2,0,0,0,.75-.12C85,220.13,83.8,222.05,84.4,223.85Zm-7.8,28.8a6.22,6.22,0,0,1,.22-4.35c1.48-2.72,4.12-3.64,6.87-4.35a10.56,10.56,0,0,0,.44,3.45l1,0a14.64,14.64,0,0,1-7.56-.16A24.49,24.49,0,0,1,76.6,252.65Zm7.13,30a13.21,13.21,0,0,1,.87-3.7,9.44,9.44,0,0,1,1.47,3.89A11.92,11.92,0,0,1,83.73,282.69Zm-2.88-17.08a29.81,29.81,0,0,0-2-6.43,18.82,18.82,0,0,0,1.7-6.86,9,9,0,0,0,5.73-.23C84.69,256.14,82.2,261.11,80.85,265.61ZM88.73,234v-.32l.29,0A3.83,3.83,0,0,0,88.73,234ZM91,231.79a10.08,10.08,0,0,1-2,0,13.35,13.35,0,0,1,1.68-3.74l1.24-.31A8.56,8.56,0,0,0,91,231.79Zm.64-16.95a34,34,0,0,0-3.27,2.24c1.27-2.57-.15-7.75,1.7-8.79,2.45-1.38,4.25-.22,5.79-.32a3.5,3.5,0,0,0,1.33-.35,28.5,28.5,0,0,0-3.93,6.77A14.68,14.68,0,0,0,91.63,214.84Zm1.52,15.79-.48.28a8.54,8.54,0,0,1,.74-2.78,7.8,7.8,0,0,0,1.15.63C94.07,229.38,93.6,230,93.15,230.63Zm3.23-16.74c-.46.06-.91.11-1.36.18a27.89,27.89,0,0,1,3.28-5.73,9.59,9.59,0,0,0,3.36,2.34A15.34,15.34,0,0,0,96.38,213.89Zm6.82,108.37a4.2,4.2,0,0,1-1.14.13,11.22,11.22,0,0,1,0-1.16l1.61.76A1.1,1.1,0,0,1,103.2,322.26Zm7.7-131.89a27.75,27.75,0,0,0-10.31,7c-1.11-5.3,2.38-9.08,7-12.18.12,1.45,1.26,2.81,3.85,4C111.27,189.55,111.08,190,110.9,190.37Zm1.9-.53.07-.14.25.09Zm7.76-22.17a16.5,16.5,0,0,1-.58,1.63A8.35,8.35,0,0,1,120.56,167.67Zm-.34,5.64c0-.09-.06-.17-.08-.25a49,49,0,0,0,2.94-7.24,7.46,7.46,0,0,0,1.24,3.32c.1.6.23,1.2.37,1.77C123.57,171.5,122,172.32,120.22,173.31Zm26.34-31.22c-.79.54-1.62,1-2.44,1.55,0-.15,0-.29,0-.44a24,24,0,0,1,2.49-1.41C146.59,141.89,146.57,142,146.56,142.09Zm-.46-1.61a4.34,4.34,0,0,1,.69-.38l-.09.87c-.91.4-1.78.82-2.6,1.26,0-.12.07-.24.11-.36l-.13.13c0-2.11.36-3.79,3.19-4.78a13.06,13.06,0,0,0-.42,2.28l-.18.05a3.44,3.44,0,0,0-2.46,2.32A16.54,16.54,0,0,1,146.1,140.48Zm1.1,1.15-.26.2c0-.07,0-.14,0-.21l.31-.15A1.11,1.11,0,0,1,147.2,141.63Zm.69-1.18-.85.37c0-.3.09-.59.14-.87a7.19,7.19,0,0,1,1.67-.27A3.42,3.42,0,0,0,147.89,140.45Zm1.67-1.1c-.13.05-.27.1-.39.16a13.14,13.14,0,0,0-1.88-.08,5.22,5.22,0,0,1,1.3-2.54,11.84,11.84,0,0,1,2.32-.08A8.9,8.9,0,0,1,149.56,139.35Zm10,198.39c-.36,4.58,10.22,2.89,3.76,8.24a14.76,14.76,0,0,1-4.19-8.16Zm-.42-210.66a8.64,8.64,0,0,0-1,.54,11.41,11.41,0,0,1,1.09-1.26A5.69,5.69,0,0,0,159.14,127.08Zm15.32-8.28a3.46,3.46,0,0,0-.71.46,6.21,6.21,0,0,1,.86-2,10.51,10.51,0,0,0,.06,1.12C174.59,118.51,174.53,118.65,174.46,118.8Zm.39-4.18a7.61,7.61,0,0,0-2.2,2.38,10.6,10.6,0,0,1,2.73-4.29A13.46,13.46,0,0,0,174.85,114.62Zm43-12-1.25.15a23.76,23.76,0,0,0-7.85-2,1.15,1.15,0,0,1,.14-.17,11,11,0,0,0,3.7-1.09,10.19,10.19,0,0,1-2.79.59c.9-.4,1.6-.9,1.74-1.53,2.85-1.12,5.88.75,8.8,3.31A6.87,6.87,0,0,0,217.87,102.64Zm4-.85a33,33,0,0,0-4-3.58c3.37-4.44,7.57-2.74,10.55.1a25.51,25.51,0,0,1-5.66,3.19C222.46,101.61,222.17,101.7,221.88,101.79Zm9.24,2.92a28.73,28.73,0,0,0-7.78-2.71,12.67,12.67,0,0,0,5.32-3.45c2.39,2.39,3.92,5.43,3.4,6.33ZM223.38,306.6a17.84,17.84,0,0,1,1.16-4.7A5.17,5.17,0,0,1,223.38,306.6Zm8.85-23.76c-.2-1.15-.41-2.31-.6-3.44A4.76,4.76,0,0,1,232.23,282.84ZM239,109.18c-.69-.43-1.4-.87-2.13-1.3A3.63,3.63,0,0,1,239,109.18Zm-3.33,144.56a14,14,0,0,1-2.65,2.38,15.45,15.45,0,0,0-2.31-.91c.44-2.73,2.68-4.85,4.6-7.12a13.73,13.73,0,0,0,1.44,1.66A4.27,4.27,0,0,1,235.67,253.74Zm2.83,6.16h0a9.62,9.62,0,0,1,2.63-3A12.54,12.54,0,0,1,238.5,259.9Zm2-3.82c-.71.73-1.78,1.64-2.72,2.6.72-1.75,2.24-3.18,3.64-4.69a2.79,2.79,0,0,1,.14.47A4,4,0,0,1,240.53,256.08Zm5.29-142.72c-.85-.45-1.93-1.11-3.17-1.88,1.4-.74,2.76-1.53,4.66-.63,1.62.77,2,2.45,2.5,4A23,23,0,0,1,245.82,113.36Zm8.26,2.69a5.08,5.08,0,0,1,3,.74s0,.1,0,.14C256.12,116.62,255.09,116.33,254.08,116.05Zm13.08,15.29c.14-.34.26-.67.37-1,.27.37.57.78.9,1.19A9,9,0,0,0,267.16,131.34Zm5.48,1.2a3.15,3.15,0,0,1-2.42-1c-.69-1.09-1.41-2.14-2.18-3.14,0-.12,0-.23,0-.35h.23c2.49.09,3.5,2.28,4.56,4.35l0,.19Zm6.6,13.5a4.74,4.74,0,0,0-1.17,1.09,19.24,19.24,0,0,0-.66-6A5.58,5.58,0,0,1,279.24,146Zm48.23,101.22c-1.51-3.17-3.55-6.88-5.35-10.93C327.36,238.58,329.52,243,327.47,247.26Zm-4.08,42.06a8,8,0,0,1,1.82,4.63,21.16,21.16,0,0,1-4.06.28,4.1,4.1,0,0,0-.76-2.7C321.34,290.75,322.36,290,323.39,289.32Zm-1.27-68.87a8.11,8.11,0,0,1,.78,4,36.75,36.75,0,0,0-7.92-9.05C317.88,216.37,320.75,217.43,322.12,220.45ZM311.71,199.7c2.08,3.92.66,7.06-2.23,10.69-.09-.45-.18-.9-.27-1.37.65-4.56.71-7.51-.57-10.38C309.73,199.06,310.78,199.42,311.71,199.7Zm77.13-47.51a15.92,15.92,0,0,0,2,2c.92.78.84,2,.85,3.67C388.26,155.92,388,153.35,388.84,152.19Zm3.57,13.4c-3.18-.53-1.65-2-.1-3.52a11.08,11.08,0,0,0,.88,1.86,8.06,8.06,0,0,1,.81,2.14A5.8,5.8,0,0,0,392.41,165.59ZM331.3,212.75h0ZM250.4,343.26c-.67.17-1.35.31-2.05.42A17.31,17.31,0,0,0,250.4,343.26Zm-72.5.32-.44-.41C177.68,343.5,177.85,343.66,177.9,343.58Zm25.48-221.5c-.6.35-1.21.68-1.81,1A9.7,9.7,0,0,0,203.38,122.08ZM330.6,259.23l-1,3C329.82,262.33,330.39,261,330.6,259.23ZM230,96.79a3.15,3.15,0,0,0,.43-.7C230.28,96.33,230.14,96.57,230,96.79ZM141.07,346.4l-.51.17C140.57,346.66,140.76,346.59,141.07,346.4Zm-37.18-181c-.35-.59-.68-1.2-1-1.82C103.21,164.18,103.54,164.78,103.89,165.36Zm12.94-11.26c-.22-.35-.43-.71-.63-1.07C116.4,153.4,116.61,153.76,116.83,154.1ZM64.1,247.78l-.6,0C63.48,247.88,63.72,247.87,64.1,247.78Z" transform="translate(-55.16 -78.04)"/></svg>